<svg version="1.1" id="Layer_1" xmlns="http://www.w3.org/2000/svg" xmlns:xlink="http://www.w3.org/1999/xlink" x="0px" y="0px"
	 width="100%" viewBox="0 0 896 896" enable-background="new 0 0 896 896" xml:space="preserve">
<path fill="#FFFFFF" opacity="1.000000" stroke="none" 
	d="
M897.000000,309.000000 
	C897.000000,505.333344 897.000000,701.166687 897.000000,897.000000 
	C598.333313,897.000000 299.666656,897.000000 1.000000,897.000000 
	C1.000000,598.333313 1.000000,299.666656 1.000000,1.000000 
	C299.666656,1.000000 598.333313,1.000000 897.000000,1.000000 
	C897.000000,103.500000 897.000000,206.000000 897.000000,309.000000 
M87.418877,417.938263 
	C93.125092,429.971680 98.387596,442.241882 104.650429,453.978271 
	C112.387451,468.477325 121.977364,481.742981 133.790924,493.337952 
	C153.335312,512.520630 171.798584,532.843323 194.276932,548.861023 
	C205.626099,556.948242 216.342194,565.933350 227.790573,573.869080 
	C237.775803,580.790527 248.250702,587.042664 258.755157,593.168823 
	C272.338837,601.090881 285.508484,609.822998 300.478546,615.162842 
	C312.780243,619.551025 324.802521,624.858765 337.323608,628.452393 
	C347.364594,631.334167 357.908936,632.872925 368.338715,633.875122 
	C378.993988,634.898987 389.922058,635.726624 400.474884,634.478088 
	C412.572296,633.046814 423.869598,628.214050 433.415192,619.980896 
	C443.632141,611.168701 450.402710,600.201904 455.032135,587.678711 
	C458.970978,577.023499 457.786285,565.976074 458.026093,555.014221 
	C458.211700,546.529175 456.781860,538.607361 450.997620,531.984924 
	C444.662537,524.731812 438.130676,518.296082 428.039032,515.756287 
	C415.497437,512.599976 402.907898,513.633118 390.323547,512.853699 
	C378.657471,512.131104 366.920197,510.894226 355.494019,508.531097 
	C347.474030,506.872437 340.050903,502.524292 332.135681,500.119659 
	C318.034363,495.835693 305.546539,488.166840 294.869141,478.803406 
	C276.318146,462.535217 258.512146,445.122498 247.733063,422.205688 
	C243.678619,413.585724 239.317947,404.950836 236.676529,395.863647 
	C233.005463,383.234222 229.183182,370.276245 228.360687,357.273254 
	C226.904602,334.253540 227.093994,311.021423 235.007935,288.765045 
	C239.380676,276.467621 243.816818,264.186249 248.593552,252.042847 
	C250.104462,248.201813 252.727386,244.777664 254.986389,241.255722 
	C259.749481,233.829758 263.944031,225.905365 269.587219,219.209808 
	C277.584167,209.721573 286.467224,200.940750 295.385376,192.283829 
	C300.389984,187.425797 305.726135,182.500580 311.785736,179.215805 
	C328.965942,169.902832 346.101685,160.204254 365.559113,156.182129 
	C378.035431,153.603088 390.500549,150.133011 403.121399,149.272232 
	C426.055634,147.708023 448.821136,150.288879 471.210449,155.941711 
	C485.034454,159.431992 498.663788,163.418884 511.415192,169.847931 
	C524.171814,176.279602 536.885315,182.830063 549.323486,189.849930 
	C559.913879,195.826965 570.357483,202.150238 580.374268,209.035782 
	C592.900024,217.646011 605.055115,226.815369 617.120483,236.068970 
	C626.812988,243.502716 636.245605,251.288437 645.589355,259.160339 
	C655.865051,267.817413 665.894531,276.766418 676.054199,285.561768 
	C690.791199,298.319794 705.621216,310.971680 720.255859,323.845886 
	C725.000549,328.019867 729.061401,332.967224 733.770691,337.186218 
	C751.136414,352.744141 768.666016,368.119080 786.081848,383.621399 
	C791.165894,388.146759 796.570862,392.748871 803.221985,393.818512 
	C820.705078,396.630280 837.865295,396.574677 852.574646,384.120239 
	C861.602295,376.476562 869.896973,368.343781 875.137024,357.519043 
	C879.485474,348.536102 882.085632,339.180634 882.017944,329.125122 
	C881.940491,317.626556 882.004761,306.127106 881.993469,294.628021 
	C881.992188,293.302521 882.145508,291.912720 881.815491,290.661255 
	C877.213379,273.207428 872.861694,255.657837 864.967102,239.293884 
	C860.815491,230.688400 856.925232,221.895432 852.002136,213.739349 
	C846.109924,203.977890 839.629272,194.508789 832.697571,185.453339 
	C823.781311,173.805252 814.569763,162.326645 804.732971,151.455856 
	C795.128723,140.841965 784.734802,130.920593 774.379822,121.016960 
	C768.729126,115.612534 762.565369,110.716293 756.408508,105.876411 
	C748.253540,99.465858 740.072876,93.055290 731.555359,87.146126 
	C717.294800,77.252625 703.310669,66.762566 688.188416,58.363152 
	C672.168457,49.465130 655.216980,42.065483 638.188232,35.215069 
	C622.678040,28.975592 606.649658,23.910786 590.611023,19.128550 
	C572.441895,13.711035 553.807434,10.378897 534.842957,8.952143 
	C520.154297,7.847071 505.518829,5.706040 490.818451,5.180362 
	C476.763611,4.677769 462.625549,5.204266 448.578094,6.113035 
	C429.966705,7.317058 411.329956,8.747303 392.853821,11.205323 
	C380.632294,12.831244 368.561127,16.019424 356.629730,19.268578 
	C345.399628,22.326763 334.384705,26.219734 323.378296,30.042513 
	C311.803680,34.062626 299.917725,37.539616 288.943451,42.855198 
	C270.664093,51.709110 252.885208,61.628548 235.138016,71.533630 
	C227.707031,75.681000 220.699478,80.674202 213.851624,85.757309 
	C205.106750,92.248550 196.358353,98.818466 188.260880,106.078758 
	C176.311951,116.792282 164.222885,127.504128 153.524918,139.412750 
	C143.718109,150.329407 135.278122,162.559601 126.976357,174.716660 
	C119.779930,185.255051 113.185982,196.268387 107.147705,207.513184 
	C102.666527,215.858292 99.191795,224.793167 95.832176,233.678360 
	C91.885452,244.116211 88.015175,254.639725 85.094475,265.393005 
	C82.102386,276.409119 79.797501,287.672974 78.107887,298.965454 
	C76.204903,311.684113 74.729424,324.531403 74.201767,337.369324 
	C73.827362,346.478729 74.986061,355.707672 76.093399,364.806213 
	C77.303116,374.746063 78.942627,384.658691 80.958862,394.467255 
	C82.536316,402.141235 84.974777,409.638245 87.418877,417.938263 
M629.001953,551.818298 
	C628.144226,558.590515 627.813660,565.481628 626.317566,572.109802 
	C623.325073,585.367676 620.380920,598.680481 614.055115,610.933899 
	C608.016724,622.630493 602.866455,634.834045 596.176636,646.134460 
	C586.299194,662.819397 572.405884,676.173279 557.778870,688.745972 
	C543.763428,700.792908 527.438599,708.929138 510.582367,715.878723 
	C500.571960,720.005798 490.086945,723.431763 479.492188,725.577454 
	C466.317261,728.245728 452.850281,729.985413 439.430573,730.760010 
	C429.683014,731.322571 419.803040,729.726562 409.990448,728.982605 
	C402.330719,728.401733 394.512848,728.440613 387.063782,726.826355 
	C365.628754,722.181396 344.458618,716.181091 324.655182,706.714844 
	C306.747894,698.154968 289.211700,688.655884 272.214752,678.405457 
	C258.290161,670.007751 245.159683,660.215942 232.117477,650.453857 
	C218.711365,640.419373 205.772354,629.754211 192.754578,619.209839 
	C182.735474,611.094421 172.914978,602.733887 162.999146,594.490784 
	C149.193329,583.014099 135.338028,571.596375 121.587509,560.053833 
	C113.315727,553.110229 104.647232,547.092102 94.226456,543.537903 
	C76.037544,537.334229 59.252773,541.166626 43.892063,550.956299 
	C32.087818,558.479431 23.460827,569.576965 18.220501,582.676086 
	C12.464578,597.064087 13.958147,612.501526 15.562301,627.147278 
	C17.217278,642.257141 23.696741,656.582397 31.480282,669.887146 
	C38.993401,682.729553 46.018967,695.984009 54.795982,707.927795 
	C65.602661,722.633545 77.431694,736.700134 89.877502,750.056519 
	C101.357315,762.376343 114.107643,773.533325 126.557610,784.918945 
	C132.432175,790.291382 138.714127,795.275818 145.166672,799.945312 
	C154.959946,807.032410 164.971359,813.830200 175.062607,820.489502 
	C183.209045,825.865540 191.428818,831.180847 199.946609,835.930176 
	C209.643402,841.337036 219.556808,846.414185 229.650879,851.034180 
	C241.317963,856.374146 253.233246,861.187256 265.141083,865.979858 
	C271.957397,868.723145 278.946777,871.048218 285.906097,873.421143 
	C293.587494,876.040344 301.245422,878.776306 309.050232,880.976685 
	C334.095062,888.037292 359.916504,890.181335 385.702087,891.789795 
	C399.379211,892.642944 413.214355,891.720764 426.935760,890.895264 
	C441.127716,890.041504 455.325012,888.757080 469.413818,886.869080 
	C481.080383,885.305725 492.663422,882.898682 504.144958,880.262085 
	C510.432037,878.818298 516.402344,876.033813 522.567749,874.013184 
	C534.270874,870.177612 546.122253,866.763977 557.704163,862.597229 
	C568.295715,858.786865 578.819519,854.653931 589.002136,849.872803 
	C604.225098,842.725098 619.412231,835.400269 634.064697,827.171448 
	C645.242859,820.893921 655.757263,813.362610 666.216675,805.898132 
	C675.726501,799.111389 685.393921,792.333496 693.878540,784.366089 
	C711.488403,767.829895 728.201782,750.474304 741.656921,730.096375 
	C752.243103,714.063293 762.463318,697.950500 769.451599,680.004700 
	C773.495117,669.620789 777.724243,659.252747 780.821899,648.573547 
	C783.640686,638.855408 784.906738,628.696167 787.106750,618.786804 
	C789.591187,607.596863 791.213257,596.362671 791.050354,584.850342 
	C790.842773,570.188110 791.007080,555.520691 790.989075,540.855530 
	C790.987244,539.370117 791.050842,537.834045 790.716553,536.407532 
	C787.858887,524.212158 785.330688,511.916901 781.858765,499.895691 
	C779.396973,491.371887 776.088745,483.008789 772.312073,474.971649 
	C768.398865,466.644135 764.077454,458.370331 758.837463,450.836060 
	C750.511597,438.864838 742.227173,426.618225 732.211487,416.123566 
	C714.940613,398.026642 696.589844,380.930725 678.223694,363.920654 
	C668.309753,354.738617 657.575012,346.413483 646.932495,338.055908 
	C637.646362,330.763428 628.125977,323.743591 618.430908,317.003326 
	C603.103333,306.347198 587.723694,295.744232 572.014221,285.667389 
	C562.523315,279.579498 552.353516,274.552948 542.514282,269.004303 
	C531.088013,262.560699 518.890320,257.980042 506.441559,254.015167 
	C492.404724,249.544525 478.010254,248.584839 463.328979,248.837387 
	C452.449188,249.024521 442.175781,250.466278 434.097687,258.103058 
	C427.605804,264.240173 420.967865,270.649841 416.210022,278.098175 
	C408.272400,290.524323 409.982819,304.833282 412.206726,318.503174 
	C413.814545,328.386108 419.709686,336.810181 428.459717,341.496399 
	C437.165375,346.158844 446.898895,349.077393 457.130219,349.001282 
	C478.911407,348.839203 500.602661,348.380341 521.725037,355.823669 
	C536.159546,360.910278 550.353210,366.672913 562.161133,376.095673 
	C580.502014,390.731873 597.024170,407.437866 607.948608,428.721802 
	C613.679138,439.886505 618.477417,451.374817 622.425049,463.387756 
	C628.183350,480.911011 631.027527,498.635376 631.001892,516.953979 
	C630.990723,524.953186 631.188416,532.958923 630.910095,540.948425 
	C630.793823,544.286743 629.685669,547.590576 629.001953,551.818298 
z"/>
<path fill="#000000" opacity="1.000000" stroke="none" 
	d="
M87.224777,417.576050 
	C84.974777,409.638245 82.536316,402.141235 80.958862,394.467255 
	C78.942627,384.658691 77.303116,374.746063 76.093399,364.806213 
	C74.986061,355.707672 73.827362,346.478729 74.201767,337.369324 
	C74.729424,324.531403 76.204903,311.684113 78.107887,298.965454 
	C79.797501,287.672974 82.102386,276.409119 85.094475,265.393005 
	C88.015175,254.639725 91.885452,244.116211 95.832176,233.678360 
	C99.191795,224.793167 102.666527,215.858292 107.147705,207.513184 
	C113.185982,196.268387 119.779930,185.255051 126.976357,174.716660 
	C135.278122,162.559601 143.718109,150.329407 153.524918,139.412750 
	C164.222885,127.504128 176.311951,116.792282 188.260880,106.078758 
	C196.358353,98.818466 205.106750,92.248550 213.851624,85.757309 
	C220.699478,80.674202 227.707031,75.681000 235.138016,71.533630 
	C252.885208,61.628548 270.664093,51.709110 288.943451,42.855198 
	C299.917725,37.539616 311.803680,34.062626 323.378296,30.042513 
	C334.384705,26.219734 345.399628,22.326763 356.629730,19.268578 
	C368.561127,16.019424 380.632294,12.831244 392.853821,11.205323 
	C411.329956,8.747303 429.966705,7.317058 448.578094,6.113035 
	C462.625549,5.204266 476.763611,4.677769 490.818451,5.180362 
	C505.518829,5.706040 520.154297,7.847071 534.842957,8.952143 
	C553.807434,10.378897 572.441895,13.711035 590.611023,19.128550 
	C606.649658,23.910786 622.678040,28.975592 638.188232,35.215069 
	C655.216980,42.065483 672.168457,49.465130 688.188416,58.363152 
	C703.310669,66.762566 717.294800,77.252625 731.555359,87.146126 
	C740.072876,93.055290 748.253540,99.465858 756.408508,105.876411 
	C762.565369,110.716293 768.729126,115.612534 774.379822,121.016960 
	C784.734802,130.920593 795.128723,140.841965 804.732971,151.455856 
	C814.569763,162.326645 823.781311,173.805252 832.697571,185.453339 
	C839.629272,194.508789 846.109924,203.977890 852.002136,213.739349 
	C856.925232,221.895432 860.815491,230.688400 864.967102,239.293884 
	C872.861694,255.657837 877.213379,273.207428 881.815491,290.661255 
	C882.145508,291.912720 881.992188,293.302521 881.993469,294.628021 
	C882.004761,306.127106 881.940491,317.626556 882.017944,329.125122 
	C882.085632,339.180634 879.485474,348.536102 875.137024,357.519043 
	C869.896973,368.343781 861.602295,376.476562 852.574646,384.120239 
	C837.865295,396.574677 820.705078,396.630280 803.221985,393.818512 
	C796.570862,392.748871 791.165894,388.146759 786.081848,383.621399 
	C768.666016,368.119080 751.136414,352.744141 733.770691,337.186218 
	C729.061401,332.967224 725.000549,328.019867 720.255859,323.845886 
	C705.621216,310.971680 690.791199,298.319794 676.054199,285.561768 
	C665.894531,276.766418 655.865051,267.817413 645.589355,259.160339 
	C636.245605,251.288437 626.812988,243.502716 617.120483,236.068970 
	C605.055115,226.815369 592.900024,217.646011 580.374268,209.035782 
	C570.357483,202.150238 559.913879,195.826965 549.323486,189.849930 
	C536.885315,182.830063 524.171814,176.279602 511.415192,169.847931 
	C498.663788,163.418884 485.034454,159.431992 471.210449,155.941711 
	C448.821136,150.288879 426.055634,147.708023 403.121399,149.272232 
	C390.500549,150.133011 378.035431,153.603088 365.559113,156.182129 
	C346.101685,160.204254 328.965942,169.902832 311.785736,179.215805 
	C305.726135,182.500580 300.389984,187.425797 295.385376,192.283829 
	C286.467224,200.940750 277.584167,209.721573 269.587219,219.209808 
	C263.944031,225.905365 259.749481,233.829758 254.986389,241.255722 
	C252.727386,244.777664 250.104462,248.201813 248.593552,252.042847 
	C243.816818,264.186249 239.380676,276.467621 235.007935,288.765045 
	C227.093994,311.021423 226.904602,334.253540 228.360687,357.273254 
	C229.183182,370.276245 233.005463,383.234222 236.676529,395.863647 
	C239.317947,404.950836 243.678619,413.585724 247.733063,422.205688 
	C258.512146,445.122498 276.318146,462.535217 294.869141,478.803406 
	C305.546539,488.166840 318.034363,495.835693 332.135681,500.119659 
	C340.050903,502.524292 347.474030,506.872437 355.494019,508.531097 
	C366.920197,510.894226 378.657471,512.131104 390.323547,512.853699 
	C402.907898,513.633118 415.497437,512.599976 428.039032,515.756287 
	C438.130676,518.296082 444.662537,524.731812 450.997620,531.984924 
	C456.781860,538.607361 458.211700,546.529175 458.026093,555.014221 
	C457.786285,565.976074 458.970978,577.023499 455.032135,587.678711 
	C450.402710,600.201904 443.632141,611.168701 433.415192,619.980896 
	C423.869598,628.214050 412.572296,633.046814 400.474884,634.478088 
	C389.922058,635.726624 378.993988,634.898987 368.338715,633.875122 
	C357.908936,632.872925 347.364594,631.334167 337.323608,628.452393 
	C324.802521,624.858765 312.780243,619.551025 300.478546,615.162842 
	C285.508484,609.822998 272.338837,601.090881 258.755157,593.168823 
	C248.250702,587.042664 237.775803,580.790527 227.790573,573.869080 
	C216.342194,565.933350 205.626099,556.948242 194.276932,548.861023 
	C171.798584,532.843323 153.335312,512.520630 133.790924,493.337952 
	C121.977364,481.742981 112.387451,468.477325 104.650429,453.978271 
	C98.387596,442.241882 93.125092,429.971680 87.224777,417.576050 
M290.495331,45.759251 
	C270.779572,55.994736 250.091599,64.463326 232.058960,77.761551 
	C217.066208,88.818016 201.416565,99.120880 187.330994,111.237541 
	C167.252136,128.509720 149.301712,147.961655 134.159607,169.900040 
	C123.705177,185.046768 114.356140,200.717377 106.488846,217.394470 
	C98.699577,233.906189 92.262245,250.871017 87.271667,268.358643 
	C84.239273,278.984497 82.018311,289.877838 80.072823,300.765350 
	C78.778679,308.007782 78.851685,315.483063 77.898338,322.800110 
	C75.312431,342.647186 76.005882,362.480530 80.704964,381.780548 
	C84.603287,397.791779 90.186691,413.464813 96.040016,428.902283 
	C99.860756,438.978943 104.821518,448.783905 110.480026,457.965881 
	C119.125565,471.994781 130.074661,484.219330 141.579758,496.145508 
	C164.257965,519.653687 188.433594,541.360168 214.882263,560.410278 
	C230.229309,571.464294 246.293732,581.599915 262.541595,591.300903 
	C275.452118,599.009216 288.857910,606.033325 302.551910,612.240173 
	C314.361053,617.592590 326.710144,621.964050 339.156128,625.629761 
	C347.892517,628.202820 357.213409,628.748657 366.237061,630.397766 
	C386.667511,634.131531 406.513855,633.686157 424.639923,621.980469 
	C438.122162,613.273804 446.799316,600.785950 452.228943,585.815613 
	C456.008087,575.395813 455.298737,564.616394 455.207092,553.885986 
	C455.144135,546.515503 453.422699,539.505249 448.126740,534.074280 
	C443.633270,529.466248 439.323822,523.927551 433.754089,521.291443 
	C424.789948,517.048767 414.725830,515.389893 404.623077,515.885254 
	C387.681183,516.715942 370.783112,515.535889 354.449493,511.489838 
	C339.344757,507.748199 324.330444,502.883545 311.345734,493.599579 
	C302.517548,487.287476 292.913544,481.816559 285.022675,474.496735 
	C274.244446,464.498474 262.884033,454.700989 255.512878,441.628204 
	C250.032608,431.908966 244.138687,422.497772 239.378281,412.246490 
	C231.504364,395.290405 226.737747,377.620239 225.618866,359.472961 
	C224.110718,335.012085 224.118912,310.343140 232.084473,286.470184 
	C237.454224,270.376892 242.629257,254.396484 251.636154,239.710724 
	C259.429993,227.002823 268.041199,215.215820 277.974091,204.077759 
	C297.792542,181.854721 322.323120,166.953354 349.958923,157.509354 
	C365.789856,152.099426 382.548096,148.513779 399.176880,146.565155 
	C417.716644,144.392609 436.549225,146.120819 455.034271,149.304642 
	C473.902008,152.554337 492.483307,157.276779 509.890137,165.310898 
	C523.997131,171.821991 537.887268,179.006104 551.165894,187.058670 
	C568.892639,197.808701 586.501648,208.924622 603.126709,221.275940 
	C623.801941,236.636246 643.534668,253.279861 663.451843,269.640198 
	C674.463623,278.685486 685.030273,288.273346 695.779602,297.637207 
	C705.699890,306.278839 715.732727,314.797699 725.467712,323.643860 
	C737.199036,334.304077 748.581238,345.347839 760.278076,356.046844 
	C770.087341,365.019470 779.803345,374.149048 790.203796,382.398193 
	C795.770569,386.813446 802.401001,391.634369 809.067383,392.561493 
	C824.056702,394.646057 838.933716,393.048096 850.708740,381.350281 
	C858.857056,373.255463 867.917847,365.936005 872.721252,355.088135 
	C877.010376,345.401764 879.653259,335.376617 879.309326,324.605286 
	C878.979858,314.283325 880.927795,303.567688 878.782166,293.697388 
	C875.264771,277.517151 869.845215,261.658051 864.070129,246.093079 
	C860.144043,235.511475 854.832275,225.312302 849.058594,215.584061 
	C842.984497,205.349609 835.967163,195.616318 828.731995,186.145233 
	C820.538147,175.419159 812.268616,164.623810 802.907288,154.946579 
	C789.187073,140.763443 774.882141,127.074448 760.049988,114.059662 
	C746.771301,102.407936 732.954895,91.210442 718.428589,81.184814 
	C704.685974,71.700058 690.015991,63.417152 675.193115,55.679783 
	C660.562134,48.042568 645.485840,41.096149 630.126038,35.066406 
	C616.675537,29.786190 602.701050,25.658609 588.699646,22.014578 
	C574.472473,18.311787 560.044250,14.963811 545.495850,13.016991 
	C526.611328,10.489935 507.547211,8.955009 488.510071,8.040606 
	C475.645874,7.422704 462.684174,8.399385 449.785675,9.050597 
	C436.294678,9.731720 422.774475,10.417288 409.364807,11.954044 
	C397.016327,13.369184 384.658356,15.318660 372.560577,18.133085 
	C360.214233,21.005322 348.113647,25.012844 336.030151,28.909933 
	C326.898163,31.855116 317.961914,35.407295 308.939575,38.692154 
	C302.978516,40.862450 297.019318,43.037773 290.495331,45.759251 
z"/>
<path fill="#000000" opacity="1.000000" stroke="none" 
	d="
M629.015259,551.364197 
	C629.685669,547.590576 630.793823,544.286743 630.910095,540.948425 
	C631.188416,532.958923 630.990723,524.953186 631.001892,516.953979 
	C631.027527,498.635376 628.183350,480.911011 622.425049,463.387756 
	C618.477417,451.374817 613.679138,439.886505 607.948608,428.721802 
	C597.024170,407.437866 580.502014,390.731873 562.161133,376.095673 
	C550.353210,366.672913 536.159546,360.910278 521.725037,355.823669 
	C500.602661,348.380341 478.911407,348.839203 457.130219,349.001282 
	C446.898895,349.077393 437.165375,346.158844 428.459717,341.496399 
	C419.709686,336.810181 413.814545,328.386108 412.206726,318.503174 
	C409.982819,304.833282 408.272400,290.524323 416.210022,278.098175 
	C420.967865,270.649841 427.605804,264.240173 434.097687,258.103058 
	C442.175781,250.466278 452.449188,249.024521 463.328979,248.837387 
	C478.010254,248.584839 492.404724,249.544525 506.441559,254.015167 
	C518.890320,257.980042 531.088013,262.560699 542.514282,269.004303 
	C552.353516,274.552948 562.523315,279.579498 572.014221,285.667389 
	C587.723694,295.744232 603.103333,306.347198 618.430908,317.003326 
	C628.125977,323.743591 637.646362,330.763428 646.932495,338.055908 
	C657.575012,346.413483 668.309753,354.738617 678.223694,363.920654 
	C696.589844,380.930725 714.940613,398.026642 732.211487,416.123566 
	C742.227173,426.618225 750.511597,438.864838 758.837463,450.836060 
	C764.077454,458.370331 768.398865,466.644135 772.312073,474.971649 
	C776.088745,483.008789 779.396973,491.371887 781.858765,499.895691 
	C785.330688,511.916901 787.858887,524.212158 790.716553,536.407532 
	C791.050842,537.834045 790.987244,539.370117 790.989075,540.855530 
	C791.007080,555.520691 790.842773,570.188110 791.050354,584.850342 
	C791.213257,596.362671 789.591187,607.596863 787.106750,618.786804 
	C784.906738,628.696167 783.640686,638.855408 780.821899,648.573547 
	C777.724243,659.252747 773.495117,669.620789 769.451599,680.004700 
	C762.463318,697.950500 752.243103,714.063293 741.656921,730.096375 
	C728.201782,750.474304 711.488403,767.829895 693.878540,784.366089 
	C685.393921,792.333496 675.726501,799.111389 666.216675,805.898132 
	C655.757263,813.362610 645.242859,820.893921 634.064697,827.171448 
	C619.412231,835.400269 604.225098,842.725098 589.002136,849.872803 
	C578.819519,854.653931 568.295715,858.786865 557.704163,862.597229 
	C546.122253,866.763977 534.270874,870.177612 522.567749,874.013184 
	C516.402344,876.033813 510.432037,878.818298 504.144958,880.262085 
	C492.663422,882.898682 481.080383,885.305725 469.413818,886.869080 
	C455.325012,888.757080 441.127716,890.041504 426.935760,890.895264 
	C413.214355,891.720764 399.379211,892.642944 385.702087,891.789795 
	C359.916504,890.181335 334.095062,888.037292 309.050232,880.976685 
	C301.245422,878.776306 293.587494,876.040344 285.906097,873.421143 
	C278.946777,871.048218 271.957397,868.723145 265.141083,865.979858 
	C253.233246,861.187256 241.317963,856.374146 229.650879,851.034180 
	C219.556808,846.414185 209.643402,841.337036 199.946609,835.930176 
	C191.428818,831.180847 183.209045,825.865540 175.062607,820.489502 
	C164.971359,813.830200 154.959946,807.032410 145.166672,799.945312 
	C138.714127,795.275818 132.432175,790.291382 126.557610,784.918945 
	C114.107643,773.533325 101.357315,762.376343 89.877502,750.056519 
	C77.431694,736.700134 65.602661,722.633545 54.795982,707.927795 
	C46.018967,695.984009 38.993401,682.729553 31.480282,669.887146 
	C23.696741,656.582397 17.217278,642.257141 15.562301,627.147278 
	C13.958147,612.501526 12.464578,597.064087 18.220501,582.676086 
	C23.460827,569.576965 32.087818,558.479431 43.892063,550.956299 
	C59.252773,541.166626 76.037544,537.334229 94.226456,543.537903 
	C104.647232,547.092102 113.315727,553.110229 121.587509,560.053833 
	C135.338028,571.596375 149.193329,583.014099 162.999146,594.490784 
	C172.914978,602.733887 182.735474,611.094421 192.754578,619.209839 
	C205.772354,629.754211 218.711365,640.419373 232.117477,650.453857 
	C245.159683,660.215942 258.290161,670.007751 272.214752,678.405457 
	C289.211700,688.655884 306.747894,698.154968 324.655182,706.714844 
	C344.458618,716.181091 365.628754,722.181396 387.063782,726.826355 
	C394.512848,728.440613 402.330719,728.401733 409.990448,728.982605 
	C419.803040,729.726562 429.683014,731.322571 439.430573,730.760010 
	C452.850281,729.985413 466.317261,728.245728 479.492188,725.577454 
	C490.086945,723.431763 500.571960,720.005798 510.582367,715.878723 
	C527.438599,708.929138 543.763428,700.792908 557.778870,688.745972 
	C572.405884,676.173279 586.299194,662.819397 596.176636,646.134460 
	C602.866455,634.834045 608.016724,622.630493 614.055115,610.933899 
	C620.380920,598.680481 623.325073,585.367676 626.317566,572.109802 
	C627.813660,565.481628 628.144226,558.590515 629.015259,551.364197 
M768.672974,474.018494 
	C765.229004,467.916565 762.115540,461.597626 758.278870,455.753479 
	C746.905762,438.429352 734.542114,421.912048 719.223267,407.728485 
	C701.729553,391.531250 684.963196,374.529236 667.126831,358.727997 
	C654.943420,347.934662 641.505615,338.550873 628.557983,328.629028 
	C620.461731,322.424835 612.433594,316.099579 604.013672,310.358337 
	C594.148560,303.631561 583.703613,297.754517 573.845276,291.018524 
	C556.375610,279.081848 537.797302,269.192474 518.144897,261.589050 
	C501.369843,255.098846 484.058350,250.132339 465.621124,251.809021 
	C462.480865,252.094589 459.230408,251.457077 456.141144,251.944733 
	C451.884216,252.616684 447.029602,252.930969 443.687805,255.227341 
	C437.546844,259.447144 432.266113,264.939880 426.740021,270.024994 
	C423.770813,272.757233 420.205109,275.291595 418.346985,278.699554 
	C411.863007,290.591705 411.272888,303.591492 414.191193,316.446777 
	C417.022858,328.920380 424.541534,337.577881 437.391388,341.656860 
	C446.646881,344.594818 455.789062,346.362244 465.511993,346.260773 
	C476.442535,346.146729 487.432312,346.347382 498.305054,347.375946 
	C512.757751,348.743195 526.580078,353.016205 539.680298,359.278870 
	C551.029236,364.704315 562.457092,370.198029 571.560852,379.154999 
	C584.908386,392.287354 598.619446,404.906281 607.759277,421.926605 
	C614.124084,433.779327 619.852661,445.726105 624.414368,458.323242 
	C632.934448,481.851044 635.004272,506.252136 633.728516,530.962463 
	C632.999573,545.082275 632.291199,559.405518 629.328003,573.153198 
	C626.068848,588.274170 620.967834,603.127625 615.315186,617.567505 
	C609.471375,632.495422 601.263794,646.289612 591.330872,659.077026 
	C577.547119,676.821838 561.805725,692.383423 542.437927,703.809204 
	C523.216125,715.148926 503.101898,724.829895 480.851501,728.563782 
	C466.605164,730.954407 452.192719,732.759094 437.782562,733.626099 
	C428.315002,734.195618 418.710236,732.732361 409.182678,731.979858 
	C400.982056,731.332153 392.647675,731.141907 384.645782,729.453857 
	C363.305176,724.951782 342.307495,718.857178 322.619934,709.444885 
	C304.828552,700.939209 287.539886,691.309875 270.429932,681.479126 
	C260.928467,676.019897 252.107544,669.325073 243.225891,662.849731 
	C228.524612,652.131592 213.762360,641.468445 199.510757,630.170410 
	C185.948242,619.418579 173.001251,607.889893 159.793381,596.691284 
	C147.546326,586.307312 135.414520,575.784058 123.028290,565.569092 
	C117.005699,560.602295 110.860542,555.621582 104.172089,551.657410 
	C88.502457,542.370117 72.229012,540.986755 55.215046,548.743225 
	C43.389397,554.134460 34.128040,562.527161 27.162811,572.891907 
	C19.616488,584.121338 17.736065,597.096985 17.456217,610.921265 
	C17.065491,630.222778 23.530792,647.401123 31.656811,663.661194 
	C40.087242,680.530457 51.239990,696.137512 62.125565,711.648560 
	C69.933640,722.774353 78.689316,733.377869 88.061317,743.225586 
	C98.776253,754.484253 110.646729,764.642761 122.005722,775.289307 
	C128.639847,781.507324 134.719757,788.475220 141.996887,793.813782 
	C155.065704,803.401062 168.572861,812.466614 182.407791,820.913391 
	C197.265869,829.984924 212.313065,838.932251 228.008972,846.396057 
	C245.212830,854.576721 263.217804,861.086609 280.942383,868.152222 
	C289.116211,871.410706 297.267792,875.004028 305.759613,877.121460 
	C318.929688,880.405579 332.349396,882.741089 345.726379,885.124573 
	C354.746552,886.731750 363.878601,888.819458 372.954987,888.792480 
	C399.089417,888.714783 425.253052,891.153992 451.362305,886.406738 
	C471.026886,882.831177 491.152924,881.964233 510.035370,874.318970 
	C517.588989,871.260559 525.839294,869.964355 533.524414,867.181274 
	C553.788452,859.843140 574.242065,852.880005 593.989136,844.313110 
	C608.134949,838.176270 621.204285,829.583374 634.858521,822.281982 
	C653.759033,812.175171 670.692566,799.148926 686.917908,785.447937 
	C712.636108,763.730896 734.162659,738.232361 751.279724,709.033875 
	C760.408936,693.461060 767.996521,677.222961 773.475952,660.156311 
	C777.967407,646.166870 780.692444,631.612183 784.249329,617.320251 
	C787.791016,603.089294 788.573669,588.626404 788.180176,574.034424 
	C788.005066,567.540039 787.788635,561.012634 788.225098,554.542969 
	C789.164490,540.619507 786.108521,527.218018 782.503601,514.081116 
	C778.839417,500.728394 773.591858,487.810150 768.672974,474.018494 
z"/>
<path fill="#FF3E00" opacity="1.000000" stroke="none" 
	d="
M290.777283,45.485046 
	C297.019318,43.037773 302.978516,40.862450 308.939575,38.692154 
	C317.961914,35.407295 326.898163,31.855116 336.030151,28.909933 
	C348.113647,25.012844 360.214233,21.005322 372.560577,18.133085 
	C384.658356,15.318660 397.016327,13.369184 409.364807,11.954044 
	C422.774475,10.417288 436.294678,9.731720 449.785675,9.050597 
	C462.684174,8.399385 475.645874,7.422704 488.510071,8.040606 
	C507.547211,8.955009 526.611328,10.489935 545.495850,13.016991 
	C560.044250,14.963811 574.472473,18.311787 588.699646,22.014578 
	C602.701050,25.658609 616.675537,29.786190 630.126038,35.066406 
	C645.485840,41.096149 660.562134,48.042568 675.193115,55.679783 
	C690.015991,63.417152 704.685974,71.700058 718.428589,81.184814 
	C732.954895,91.210442 746.771301,102.407936 760.049988,114.059662 
	C774.882141,127.074448 789.187073,140.763443 802.907288,154.946579 
	C812.268616,164.623810 820.538147,175.419159 828.731995,186.145233 
	C835.967163,195.616318 842.984497,205.349609 849.058594,215.584061 
	C854.832275,225.312302 860.144043,235.511475 864.070129,246.093079 
	C869.845215,261.658051 875.264771,277.517151 878.782166,293.697388 
	C880.927795,303.567688 878.979858,314.283325 879.309326,324.605286 
	C879.653259,335.376617 877.010376,345.401764 872.721252,355.088135 
	C867.917847,365.936005 858.857056,373.255463 850.708740,381.350281 
	C838.933716,393.048096 824.056702,394.646057 809.067383,392.561493 
	C802.401001,391.634369 795.770569,386.813446 790.203796,382.398193 
	C779.803345,374.149048 770.087341,365.019470 760.278076,356.046844 
	C748.581238,345.347839 737.199036,334.304077 725.467712,323.643860 
	C715.732727,314.797699 705.699890,306.278839 695.779602,297.637207 
	C685.030273,288.273346 674.463623,278.685486 663.451843,269.640198 
	C643.534668,253.279861 623.801941,236.636246 603.126709,221.275940 
	C586.501648,208.924622 568.892639,197.808701 551.165894,187.058670 
	C537.887268,179.006104 523.997131,171.821991 509.890137,165.310898 
	C492.483307,157.276779 473.902008,152.554337 455.034271,149.304642 
	C436.549225,146.120819 417.716644,144.392609 399.176880,146.565155 
	C382.548096,148.513779 365.789856,152.099426 349.958923,157.509354 
	C322.323120,166.953354 297.792542,181.854721 277.974091,204.077759 
	C268.041199,215.215820 259.429993,227.002823 251.636154,239.710724 
	C242.629257,254.396484 237.454224,270.376892 232.084473,286.470184 
	C224.118912,310.343140 224.110718,335.012085 225.618866,359.472961 
	C226.737747,377.620239 231.504364,395.290405 239.378281,412.246490 
	C244.138687,422.497772 250.032608,431.908966 255.512878,441.628204 
	C262.884033,454.700989 274.244446,464.498474 285.022675,474.496735 
	C292.913544,481.816559 302.517548,487.287476 311.345734,493.599579 
	C324.330444,502.883545 339.344757,507.748199 354.449493,511.489838 
	C370.783112,515.535889 387.681183,516.715942 404.623077,515.885254 
	C414.725830,515.389893 424.789948,517.048767 433.754089,521.291443 
	C439.323822,523.927551 443.633270,529.466248 448.126740,534.074280 
	C453.422699,539.505249 455.144135,546.515503 455.207092,553.885986 
	C455.298737,564.616394 456.008087,575.395813 452.228943,585.815613 
	C446.799316,600.785950 438.122162,613.273804 424.639923,621.980469 
	C406.513855,633.686157 386.667511,634.131531 366.237061,630.397766 
	C357.213409,628.748657 347.892517,628.202820 339.156128,625.629761 
	C326.710144,621.964050 314.361053,617.592590 302.551910,612.240173 
	C288.857910,606.033325 275.452118,599.009216 262.541595,591.300903 
	C246.293732,581.599915 230.229309,571.464294 214.882263,560.410278 
	C188.433594,541.360168 164.257965,519.653687 141.579758,496.145508 
	C130.074661,484.219330 119.125565,471.994781 110.480026,457.965881 
	C104.821518,448.783905 99.860756,438.978943 96.040016,428.902283 
	C90.186691,413.464813 84.603287,397.791779 80.704964,381.780548 
	C76.005882,362.480530 75.312431,342.647186 77.898338,322.800110 
	C78.851685,315.483063 78.778679,308.007782 80.072823,300.765350 
	C82.018311,289.877838 84.239273,278.984497 87.271667,268.358643 
	C92.262245,250.871017 98.699577,233.906189 106.488846,217.394470 
	C114.356140,200.717377 123.705177,185.046768 134.159607,169.900040 
	C149.301712,147.961655 167.252136,128.509720 187.330994,111.237541 
	C201.416565,99.120880 217.066208,88.818016 232.058960,77.761551 
	C250.091599,64.463326 270.779572,55.994736 290.777283,45.485046 
z"/>
<path fill="#FF3E00" opacity="1.000000" stroke="none" 
	d="
M768.855347,474.360077 
	C773.591858,487.810150 778.839417,500.728394 782.503601,514.081116 
	C786.108521,527.218018 789.164490,540.619507 788.225098,554.542969 
	C787.788635,561.012634 788.005066,567.540039 788.180176,574.034424 
	C788.573669,588.626404 787.791016,603.089294 784.249329,617.320251 
	C780.692444,631.612183 777.967407,646.166870 773.475952,660.156311 
	C767.996521,677.222961 760.408936,693.461060 751.279724,709.033875 
	C734.162659,738.232361 712.636108,763.730896 686.917908,785.447937 
	C670.692566,799.148926 653.759033,812.175171 634.858521,822.281982 
	C621.204285,829.583374 608.134949,838.176270 593.989136,844.313110 
	C574.242065,852.880005 553.788452,859.843140 533.524414,867.181274 
	C525.839294,869.964355 517.588989,871.260559 510.035370,874.318970 
	C491.152924,881.964233 471.026886,882.831177 451.362305,886.406738 
	C425.253052,891.153992 399.089417,888.714783 372.954987,888.792480 
	C363.878601,888.819458 354.746552,886.731750 345.726379,885.124573 
	C332.349396,882.741089 318.929688,880.405579 305.759613,877.121460 
	C297.267792,875.004028 289.116211,871.410706 280.942383,868.152222 
	C263.217804,861.086609 245.212830,854.576721 228.008972,846.396057 
	C212.313065,838.932251 197.265869,829.984924 182.407791,820.913391 
	C168.572861,812.466614 155.065704,803.401062 141.996887,793.813782 
	C134.719757,788.475220 128.639847,781.507324 122.005722,775.289307 
	C110.646729,764.642761 98.776253,754.484253 88.061317,743.225586 
	C78.689316,733.377869 69.933640,722.774353 62.125565,711.648560 
	C51.239990,696.137512 40.087242,680.530457 31.656811,663.661194 
	C23.530792,647.401123 17.065491,630.222778 17.456217,610.921265 
	C17.736065,597.096985 19.616488,584.121338 27.162811,572.891907 
	C34.128040,562.527161 43.389397,554.134460 55.215046,548.743225 
	C72.229012,540.986755 88.502457,542.370117 104.172089,551.657410 
	C110.860542,555.621582 117.005699,560.602295 123.028290,565.569092 
	C135.414520,575.784058 147.546326,586.307312 159.793381,596.691284 
	C173.001251,607.889893 185.948242,619.418579 199.510757,630.170410 
	C213.762360,641.468445 228.524612,652.131592 243.225891,662.849731 
	C252.107544,669.325073 260.928467,676.019897 270.429932,681.479126 
	C287.539886,691.309875 304.828552,700.939209 322.619934,709.444885 
	C342.307495,718.857178 363.305176,724.951782 384.645782,729.453857 
	C392.647675,731.141907 400.982056,731.332153 409.182678,731.979858 
	C418.710236,732.732361 428.315002,734.195618 437.782562,733.626099 
	C452.192719,732.759094 466.605164,730.954407 480.851501,728.563782 
	C503.101898,724.829895 523.216125,715.148926 542.437927,703.809204 
	C561.805725,692.383423 577.547119,676.821838 591.330872,659.077026 
	C601.263794,646.289612 609.471375,632.495422 615.315186,617.567505 
	C620.967834,603.127625 626.068848,588.274170 629.328003,573.153198 
	C632.291199,559.405518 632.999573,545.082275 633.728516,530.962463 
	C635.004272,506.252136 632.934448,481.851044 624.414368,458.323242 
	C619.852661,445.726105 614.124084,433.779327 607.759277,421.926605 
	C598.619446,404.906281 584.908386,392.287354 571.560852,379.154999 
	C562.457092,370.198029 551.029236,364.704315 539.680298,359.278870 
	C526.580078,353.016205 512.757751,348.743195 498.305054,347.375946 
	C487.432312,346.347382 476.442535,346.146729 465.511993,346.260773 
	C455.789062,346.362244 446.646881,344.594818 437.391388,341.656860 
	C424.541534,337.577881 417.022858,328.920380 414.191193,316.446777 
	C411.272888,303.591492 411.863007,290.591705 418.346985,278.699554 
	C420.205109,275.291595 423.770813,272.757233 426.740021,270.024994 
	C432.266113,264.939880 437.546844,259.447144 443.687805,255.227341 
	C447.029602,252.930969 451.884216,252.616684 456.141144,251.944733 
	C459.230408,251.457077 462.480865,252.094589 465.621124,251.809021 
	C484.058350,250.132339 501.369843,255.098846 518.144897,261.589050 
	C537.797302,269.192474 556.375610,279.081848 573.845276,291.018524 
	C583.703613,297.754517 594.148560,303.631561 604.013672,310.358337 
	C612.433594,316.099579 620.461731,322.424835 628.557983,328.629028 
	C641.505615,338.550873 654.943420,347.934662 667.126831,358.727997 
	C684.963196,374.529236 701.729553,391.531250 719.223267,407.728485 
	C734.542114,421.912048 746.905762,438.429352 758.278870,455.753479 
	C762.115540,461.597626 765.229004,467.916565 768.855347,474.360077 
z"/>
</svg>