<?xml version="1.0" encoding="utf-8"?>
<!-- Generator: Adobe Illustrator 23.0.2, SVG Export Plug-In . SVG Version: 6.00 Build 0)  -->
<svg version="1.1" id="Layer_1" xmlns="http://www.w3.org/2000/svg" xmlns:xlink="http://www.w3.org/1999/xlink" x="0px" y="0px"
	 viewBox="0 0 332.2 61.7" style="enable-background:new 0 0 332.2 61.7;" xml:space="preserve">
<style type="text/css">
	.st0{fill:#4A4A55;}
</style>
<g>
	<path class="st0" d="M0,47.2l8.3-3.1c2.5,5.4,7.3,9,13.7,9c6.5,0,10.8-3.2,10.8-9.2c0-6.5-6.5-8.8-13.5-11.2
		C11.2,29.7,2,26.5,2,15.6C2,7.2,8.9,0,21,0c10.1,0,16.4,5,18.4,11.8l-8.2,2.7c-1.4-3.4-5.1-6-10.9-6c-5.7,0-9.1,2.6-9.1,7.2
		c0,4.9,5.5,6.8,12,9c8.6,3.2,18.8,6.8,18.8,19.2c0,11.4-8.9,17.8-20.4,17.8C11.1,61.7,3,56,0,47.2z"/>
	<path class="st0" d="M90.2,46.9H66.1l-4.9,13.7H52L73.6,1h9.1l21.5,59.6H95L90.2,46.9z M80.2,18.8c-0.7-1.9-1.6-4.7-2-6.7
		c-0.5,2-1.4,4.8-2,6.7l-7.3,20.3h18.6L80.2,18.8z"/>
	<path class="st0" d="M117.5,1h23.9c14.6,0,19.7,9.3,19.7,18.2c0,8.3-5.5,18.2-19.7,18.2h-15.1v23.2h-8.9V1z M151.9,19.2
		c0-4.2-2.1-9.7-10-9.7h-15.6V29H142C149.4,29,151.9,23.8,151.9,19.2z"/>
	<path class="st0" d="M175.2,1h23.9c14.6,0,19.7,9.3,19.7,18.2c0,8.3-5.5,18.2-19.7,18.2H184v23.2h-8.9V1z M209.6,19.2
		c0-4.2-2.1-9.7-10-9.7H184V29h15.6C207,29,209.6,23.8,209.6,19.2z"/>
	<path class="st0" d="M232.8,1h37v8.3h-28.1v16.4h18.1v8.3h-18.1v18.2h30v8.3h-38.8V1z"/>
	<path class="st0" d="M287.9,1H313c14.6,0,19.2,8.7,19.2,17.6c0,6.9-3.8,14.5-12.9,16.9l12.3,25.1h-10.1l-11.8-24.4h-12.9v24.4h-8.9
		V1z M313.2,27.8c7.4,0,9.9-4.5,9.9-9.1c0-4.2-2-9.1-9.9-9.1h-16.4v18.2H313.2z"/>
</g>
</svg>
