<?xml version="1.0" encoding="utf-8"?>
<!-- Generator: Adobe Illustrator 23.0.2, SVG Export Plug-In . SVG Version: 6.00 Build 0)  -->
<svg version="1.1" id="svelte" xmlns="http://www.w3.org/2000/svg" xmlns:xlink="http://www.w3.org/1999/xlink" x="0px" y="0px"
	 viewBox="0 0 256 300" style="enable-background:new 0 0 256 300;" xml:space="preserve">
<style type="text/css">
	.st0{fill:#159497;}
	.st1{fill:#FFFFFF;}
	.st2{fill:#4A4A55;}
</style>
<path id="back" class="st0" d="M191.9,52.1c-16.3-23.4-48.6-30.3-71.9-15.5L79,62.8c-11.2,7-18.9,18.5-21.3,31.5
	c-1.9,10.8-0.2,22,4.9,31.7c-3.5,5.3-5.9,11.3-7,17.6c-2.4,13.3,0.7,26.9,8.6,37.9c16.3,23.4,48.6,30.3,71.9,15.4l41-26.1
	c11.2-7,18.9-18.5,21.2-31.5c2-10.8,0.2-22-4.9-31.8c3.5-5.3,5.9-11.3,7-17.6C202.8,76.7,199.7,63,191.9,52.1"/>
<path id="front" class="st1" d="M115.9,183.7c-13.2,3.4-27.2-1.7-34.9-12.9c-4.7-6.6-6.6-14.8-5.2-22.8c0.2-1.3,0.6-2.6,1-3.8
	l0.8-2.4l2.1,1.5c4.8,3.6,10.3,6.3,16,8l1.5,0.5l-0.1,1.5c-0.2,2.2,0.4,4.3,1.7,6.1c2.3,3.4,6.5,4.9,10.5,3.9
	c0.9-0.2,1.7-0.6,2.5-1.1l41-26.1c2-1.3,3.4-3.4,3.9-5.7c0.4-2.4-0.1-4.9-1.6-6.9c-2.3-3.4-6.5-4.9-10.5-3.9
	c-0.9,0.2-1.7,0.6-2.5,1.1l-15.6,10c-2.6,1.6-5.4,2.9-8.3,3.7c-13.2,3.4-27.2-1.8-34.9-13c-4.7-6.6-6.6-14.8-5.2-22.8
	c1.4-7.8,6-14.7,12.8-18.9l41-26.1c2.6-1.6,5.4-2.9,8.3-3.7c13.2-3.4,27.2,1.8,34.9,13c4.7,6.6,6.6,14.8,5.1,22.8
	c-0.2,1.3-0.6,2.6-1,3.8l-0.8,2.3l-2.1-1.5c-4.8-3.6-10.2-6.3-16-8l-1.5-0.5l0.1-1.5c0.2-2.2-0.4-4.3-1.6-6.1
	c-2.3-3.4-6.5-4.9-10.5-3.9c-0.9,0.2-1.7,0.6-2.5,1.1l-41,26.1c-2,1.3-3.4,3.3-3.8,5.7c-0.4,2.4,0.1,4.9,1.6,6.9
	c2.4,3.4,6.5,4.9,10.5,3.9c0.9-0.2,1.7-0.6,2.5-1.1l15.6-10c2.6-1.6,5.4-2.9,8.3-3.7c13.2-3.4,27.2,1.7,34.9,12.9
	c4.7,6.6,6.6,14.8,5.2,22.8c-1.4,7.8-6,14.7-12.8,18.9l-41,26.1C121.7,181.7,118.8,182.9,115.9,183.7"/>
<g>
	<path class="st2" d="M31.8,257.4l4.9-1.8c1.4,3.1,4.3,5.3,8,5.3c3.8,0,6.3-1.8,6.3-5.4c0-3.8-3.8-5.1-7.8-6.6
		c-4.8-1.7-10.1-3.6-10.1-10c0-4.9,4-9.1,11.1-9.1c5.9,0,9.5,2.9,10.7,6.9l-4.8,1.6c-0.8-2-3-3.5-6.4-3.5c-3.3,0-5.3,1.5-5.3,4.2
		c0,2.8,3.2,4,7,5.3c5,1.8,11,4,11,11.2c0,6.7-5.2,10.4-11.9,10.4C38.2,265.9,33.5,262.6,31.8,257.4z"/>
	<path class="st2" d="M84.3,257.3H70.3l-2.8,8h-5.4l12.6-34.8H80l12.5,34.8h-5.4L84.3,257.3z M78.5,240.9c-0.4-1.1-0.9-2.7-1.2-3.9
		c-0.3,1.2-0.8,2.8-1.2,3.9l-4.3,11.8h10.9L78.5,240.9z"/>
	<path class="st2" d="M100.3,230.5h14c8.5,0,11.5,5.4,11.5,10.6c0,4.9-3.2,10.6-11.5,10.6h-8.8v13.5h-5.2V230.5z M120.4,241.2
		c0-2.4-1.2-5.7-5.8-5.7h-9.1v11.3h9.1C118.9,246.8,120.4,243.8,120.4,241.2z"/>
	<path class="st2" d="M133.9,230.5h14c8.5,0,11.5,5.4,11.5,10.6c0,4.9-3.2,10.6-11.5,10.6h-8.8v13.5h-5.2V230.5z M154,241.2
		c0-2.4-1.2-5.7-5.8-5.7h-9.1v11.3h9.1C152.5,246.8,154,243.8,154,241.2z"/>
	<path class="st2" d="M167.5,230.5h21.6v4.9h-16.4v9.5h10.6v4.9h-10.6v10.6h17.5v4.9h-22.6V230.5z"/>
	<path class="st2" d="M199.6,230.5h14.7c8.5,0,11.2,5.1,11.2,10.3c0,4-2.2,8.4-7.5,9.8l7.2,14.7h-5.9l-6.9-14.2h-7.5v14.2h-5.2
		V230.5z M214.4,246.1c4.3,0,5.8-2.6,5.8-5.3c0-2.4-1.2-5.3-5.8-5.3h-9.6v10.6H214.4z"/>
</g>
</svg>
